<?xml version="1.0" encoding="UTF-8"?>
<svg xmlns="http://www.w3.org/2000/svg" xmlns:xlink="http://www.w3.org/1999/xlink" viewBox="0 0 48 48" width="48px" height="48px">
<g id="surface33714366">
<path style=" stroke:none;fill-rule:nonzero;fill:rgb(100%,100%,100%);fill-opacity:1;" d="M 24 7.5 C 14.886719 7.5 7.5 14.886719 7.5 24 C 7.5 33.113281 14.886719 40.5 24 40.5 C 33.113281 40.5 40.5 33.113281 40.5 24 C 40.5 14.886719 33.113281 7.5 24 7.5 Z M 24 10.5 C 31.457031 10.5 37.5 16.542969 37.5 24 C 37.5 30.179688 33.34375 35.378906 27.679688 36.980469 C 27.609375 36.835938 27.5625 36.679688 27.566406 36.5 C 27.589844 35.59375 27.566406 33.476562 27.566406 32.703125 C 27.566406 31.367188 26.722656 30.421875 26.722656 30.421875 C 26.722656 30.421875 33.339844 30.496094 33.339844 23.433594 C 33.339844 20.710938 31.914062 19.289062 31.914062 19.289062 C 31.914062 19.289062 32.664062 16.382812 31.65625 15.148438 C 30.527344 15.027344 28.507812 16.226562 27.644531 16.785156 C 27.644531 16.785156 26.277344 16.226562 24 16.226562 C 21.722656 16.226562 20.355469 16.785156 20.355469 16.785156 C 19.492188 16.226562 17.472656 15.027344 16.34375 15.148438 C 15.335938 16.382812 16.085938 19.289062 16.085938 19.289062 C 16.085938 19.289062 14.660156 20.707031 14.660156 23.433594 C 14.660156 30.496094 21.277344 30.421875 21.277344 30.421875 C 21.277344 30.421875 20.523438 31.28125 20.449219 32.507812 C 20.007812 32.664062 19.402344 32.847656 18.828125 32.847656 C 17.441406 32.847656 16.386719 31.5 16 30.878906 C 15.621094 30.261719 14.839844 29.746094 14.109375 29.746094 C 13.628906 29.746094 13.394531 29.984375 13.394531 30.261719 C 13.394531 30.535156 14.066406 30.726562 14.511719 31.234375 C 15.449219 32.308594 15.429688 34.71875 18.765625 34.71875 C 19.160156 34.71875 19.867188 34.628906 20.433594 34.550781 C 20.429688 35.308594 20.421875 36.035156 20.433594 36.5 C 20.4375 36.679688 20.390625 36.835938 20.320312 36.980469 C 14.65625 35.375 10.5 30.179688 10.5 24 C 10.5 16.542969 16.542969 10.5 24 10.5 Z M 24 10.5 "/>
</g>
</svg>
